<?xml version="1.0" encoding="UTF-8" standalone="no"?>
<!-- Created with Inkscape (http://www.inkscape.org/) -->

<svg
   xmlns:dc="http://purl.org/dc/elements/1.1/"
   xmlns:cc="http://creativecommons.org/ns#"
   xmlns:rdf="http://www.w3.org/1999/02/22-rdf-syntax-ns#"
   xmlns:svg="http://www.w3.org/2000/svg"
   xmlns="http://www.w3.org/2000/svg"
   xmlns:sodipodi="http://sodipodi.sourceforge.net/DTD/sodipodi-0.dtd"
   xmlns:inkscape="http://www.inkscape.org/namespaces/inkscape"
   width="260.44031mm"
   height="267.01508mm"
   viewBox="0 0 260.44031 267.01507"
   version="1.1"
   id="svg8"
   inkscape:version="0.92.4 (5da689c313, 2019-01-14)"
   sodipodi:docname="logo-2.svg"
   inkscape:export-filename="C:\Users\Richard Collier\Documents\IdeaProjects\Endeavour\Angular8\projects\dds-angular8\assets\img\logo.png"
   inkscape:export-xdpi="12.48"
   inkscape:export-ydpi="12.48">
  <defs
     id="defs2" />
  <sodipodi:namedview
     id="base"
     pagecolor="#ffffff"
     bordercolor="#666666"
     borderopacity="1.0"
     inkscape:pageopacity="0.0"
     inkscape:pageshadow="2"
     inkscape:zoom="0.35"
     inkscape:cx="489.07522"
     inkscape:cy="-36.65051"
     inkscape:document-units="mm"
     inkscape:current-layer="layer1"
     showgrid="false"
     inkscape:window-width="1920"
     inkscape:window-height="1027"
     inkscape:window-x="-8"
     inkscape:window-y="-8"
     inkscape:window-maximized="1"
     inkscape:pagecheckerboard="true" />
  <metadata
     id="metadata5">
    <rdf:RDF>
      <cc:Work
         rdf:about="">
        <dc:format>image/svg+xml</dc:format>
        <dc:type
           rdf:resource="http://purl.org/dc/dcmitype/StillImage" />
        <dc:title />
      </cc:Work>
    </rdf:RDF>
  </metadata>
  <g
     inkscape:label="Layer 1"
     inkscape:groupmode="layer"
     id="layer1"
     transform="translate(30.3825,26.472015)">
    <ellipse
       style="opacity:1;fill:#999999;fill-opacity:1;stroke-width:0.28047422"
       id="path27"
       cx="99.837654"
       cy="106.95358"
       rx="130.22015"
       ry="133.4256" />
    <g
       id="g109"
       transform="matrix(0.36216541,0,0,0.36216541,-5.5027273,-0.1648665)"
       style="fill:#ffffff">
      <g
         id="g53"
         style="fill:#ffffff">
        <path
           id="path51"
           d="M 542.346,235.523 C 535.699,158.722 490.238,87.897 426.553,45.471 391.653,22.222 351.217,7.952 309.713,2.554 195.319,-12.325 74.841,37.92 31.685,150.284 c -37.099,96.597 -0.52,192.495 65.913,265.632 23.974,26.393 30.82424,76.2035 27.298,109.446 l -6.00102,56.5727 c -2.553,24.06757 -3.07079,35.02267 -3.07079,35.02267 v 0 c 0,0 125.15155,82.83318 281.58825,30.13727 0.903,-13.335 12.82256,-77.76664 12.82256,-77.76664 5.129,-21.996 23.884,-39.634 63.768,-33.231 41.844,6.713 68.237,-5.756 70.584,-33.617 0.774,-9.191 1.273,-87.695 1.273,-87.695 1.999,-1.142 15.117,-3.75 34.236,-8.097 14.867,-3.38 20.103,-21.838 9.263,-32.561 -43.469,-43.001 -49.299,-63.047 -50.378,-67.362 -5.383,-21.438 5.315,-48.716 3.365,-71.242 z"
           inkscape:connector-curvature="0"
           style="fill:#ffffff"
           sodipodi:nodetypes="cccccssccccccccccc" />
      </g>
      <g
         id="g55"
         style="fill:#ffffff" />
      <g
         id="g57"
         style="fill:#ffffff" />
      <g
         id="g59"
         style="fill:#ffffff" />
      <g
         id="g61"
         style="fill:#ffffff" />
      <g
         id="g63"
         style="fill:#ffffff" />
      <g
         id="g65"
         style="fill:#ffffff" />
      <g
         id="g67"
         style="fill:#ffffff" />
      <g
         id="g69"
         style="fill:#ffffff" />
      <g
         id="g71"
         style="fill:#ffffff" />
      <g
         id="g73"
         style="fill:#ffffff" />
      <g
         id="g75"
         style="fill:#ffffff" />
      <g
         id="g77"
         style="fill:#ffffff" />
      <g
         id="g79"
         style="fill:#ffffff" />
      <g
         id="g81"
         style="fill:#ffffff" />
      <g
         id="g83"
         style="fill:#ffffff" />
    </g>
    <ellipse
       style="opacity:1;fill:#cccccc;fill-opacity:1;stroke-width:0.28307968"
       id="path3862"
       cx="92.808716"
       cy="86.467255"
       rx="74.665855"
       ry="72.949402" />
    <path
       style="fill:#333333;stroke-width:0.27809447"
       d="m 92.528429,148.81204 c -2.078798,-0.94427 -3.483611,-3.20556 -4.000147,-6.43896 -0.400277,-2.50564 0.02722,-4.8514 1.442767,-7.91637 1.321106,-2.86056 1.445184,-4.07183 0.546375,-5.33409 -0.340671,-0.47842 -0.619393,-1.17293 -0.619393,-1.54333 0,-0.63418 -0.174477,-0.70797 -2.989514,-1.26428 -6.379548,-1.26074 -11.347748,-3.48591 -17.187562,-7.698 -0.252782,-0.18232 -0.533847,-0.11754 -0.890547,0.20527 -0.286657,0.25941 -0.950983,0.55097 -1.476277,0.64791 -1.922394,0.35472 -2.771425,1.38877 -3.6932,4.49801 -1.013846,3.41983 -3.267794,6.11575 -6.29995,7.53532 -2.034622,0.95256 -5.11659,1.02856 -6.288076,0.15506 -1.547621,-1.15398 -1.916219,-1.94657 -1.909534,-4.10611 0.01366,-4.42025 3.03985,-8.05977 8.28591,-9.96529 3.454769,-1.25486 4.187233,-1.83438 4.4625,-3.53066 0.08419,-0.51866 0.372118,-1.18511 0.639898,-1.481 0.334123,-0.36921 0.403285,-0.65385 0.220451,-0.90733 -4.212094,-5.83982 -6.437264,-10.80803 -7.697996,-17.187575 -0.552829,-2.797392 -0.633308,-2.989516 -1.25244,-2.989516 -0.3639,0 -1.122044,-0.312848 -1.684774,-0.695226 -0.56272,-0.382388 -1.392862,-0.695239 -1.844768,-0.695239 -0.451895,0 -2.035399,0.567377 -3.518884,1.260828 -1.483485,0.693462 -3.42762,1.379702 -4.320311,1.52499 -3.208904,0.522264 -7.232594,-0.667069 -8.976533,-2.653308 -3.160365,-3.599461 -0.403483,-8.090559 5.535039,-9.016894 2.514506,-0.392238 4.865793,0.03784 7.920979,1.448841 2.860549,1.321116 4.071818,1.445183 5.334074,0.546387 0.478424,-0.340674 1.172927,-0.619395 1.543344,-0.619395 0.63417,0 0.707967,-0.174476 1.264274,-2.989515 1.260732,-6.379543 3.485902,-11.347755 7.697996,-17.187561 0.182327,-0.252791 0.11754,-0.533855 -0.205264,-0.890545 -0.259424,-0.286656 -0.550978,-0.950982 -0.647907,-1.476276 -0.354724,-1.922397 -1.388773,-2.771428 -4.498026,-3.693203 -3.419811,-1.013845 -6.115732,-3.267793 -7.535312,-6.299951 -0.95256,-2.034632 -1.028552,-5.116599 -0.155053,-6.288075 1.153965,-1.547621 1.946563,-1.916218 4.106104,-1.909533 4.420258,0.01366 8.05976,3.039849 9.965281,8.285908 1.254879,3.45477 1.834394,4.187235 3.530677,4.462498 0.518657,0.08419 1.185108,0.372121 1.480991,0.63989 0.36921,0.334134 0.653848,0.403296 0.907334,0.220462 5.839814,-4.212094 10.808014,-6.437264 17.187562,-7.697996 2.797401,-0.55283 2.989514,-0.633319 2.989514,-1.25244 0,-0.3639 0.312861,-1.122044 0.695238,-1.684774 0.382378,-0.56272 0.695238,-1.392872 0.695238,-1.844768 0,-0.451905 -0.567375,-2.035398 -1.260837,-3.518883 -0.693451,-1.483485 -1.379703,-3.427631 -1.524991,-4.320311 -0.522254,-3.208904 0.667079,-7.232596 2.65332,-8.976537 3.599449,-3.160362 8.090558,-0.403484 9.016891,5.535043 0.39223,2.514506 -0.0378,4.865793 -1.448849,7.920968 -1.321116,2.860558 -1.445184,4.071828 -0.546376,5.334084 0.340661,0.478425 0.619393,1.172926 0.619393,1.543334 0,0.63418 0.174477,0.707965 2.989512,1.264284 6.37955,1.260732 11.34774,3.485902 17.18756,7.697996 0.25278,0.182327 0.53385,0.117539 0.89055,-0.205264 0.28665,-0.259423 0.95097,-0.550978 1.47627,-0.647907 1.9224,-0.354735 2.77142,-1.388773 3.69321,-4.498026 1.01384,-3.419811 3.26778,-6.115743 6.29995,-7.535312 2.03462,-0.952559 5.11659,-1.028551 6.28806,-0.155053 1.54763,1.153965 1.91623,1.946563 1.90955,4.106104 -0.0137,4.420247 -3.03986,8.059761 -8.28591,9.965282 -3.45478,1.254879 -4.18724,1.834394 -4.46251,3.530676 -0.0842,0.51866 -0.37212,1.185108 -0.63989,1.480994 -0.33412,0.369207 -0.40329,0.653848 -0.22046,0.907331 4.21209,5.839806 6.43727,10.808018 7.698,17.187561 0.55283,2.797402 0.63331,2.989515 1.25243,2.989515 0.36391,0 1.12206,0.312851 1.68478,0.695239 0.56273,0.382378 1.39287,0.695226 1.84477,0.695226 0.4519,0 2.0354,-0.567364 3.51888,-1.260825 1.48349,-0.693451 3.42763,-1.379705 4.32031,-1.524993 3.20891,-0.522264 7.2326,0.667072 8.97654,2.653311 3.16037,3.599458 0.40349,8.090559 -5.53505,9.016894 -2.51449,0.392236 -4.86579,-0.03784 -7.92096,-1.448841 -2.86056,-1.321116 -4.07182,-1.445185 -5.33408,-0.546376 -0.47842,0.34066 -1.17293,0.619381 -1.54334,0.619381 -0.63417,0 -0.70797,0.174487 -1.26428,2.989516 -1.26073,6.379545 -3.48591,11.347755 -7.698,17.187575 -0.18232,0.25278 -0.11753,0.53385 0.20527,0.89054 0.25941,0.28665 0.55098,0.95098 0.64791,1.47628 0.35472,1.9224 1.38877,2.77142 4.49802,3.69321 3.41982,1.01383 6.11574,3.26778 7.53531,6.29994 0.95256,2.03463 1.02856,5.1166 0.15506,6.28807 -1.15397,1.54763 -1.94656,1.91623 -4.10611,1.90955 -4.42025,-0.0137 -8.05976,-3.03986 -9.96529,-8.28592 -1.25486,-3.45477 -1.83438,-4.18723 -3.53066,-4.4625 -0.51866,-0.0842 -1.18511,-0.37212 -1.481,-0.63989 -0.3692,-0.33414 -0.65384,-0.4033 -0.90733,-0.22046 -5.83982,4.21209 -10.80801,6.43726 -17.18756,7.698 -2.797398,0.55282 -2.989512,0.63331 -2.989512,1.25243 0,0.3639 -0.31286,1.12206 -0.695237,1.68478 -0.382378,0.56272 -0.695238,1.39287 -0.695238,1.84476 0,0.45191 0.567375,2.0354 1.260827,3.51889 1.51455,3.24003 1.90147,5.24032 1.49988,7.75416 -0.343214,2.14843 -0.989189,3.69794 -2.079501,4.98812 -0.872238,1.03211 -2.647309,1.9644 -3.740249,1.9644 -0.382378,0 -1.20098,-0.22973 -1.819111,-0.51051 z m -2.695059,-37.75841 -0.07442,-6.85644 -1.404728,-0.47734 c -0.772607,-0.26253 -1.783165,-0.67304 -2.245697,-0.91222 l -0.840968,-0.43488 -4.820018,4.82593 -4.82002,4.82594 2.026769,1.3111 c 2.596838,1.67988 5.785392,3.05727 9.002484,3.88889 1.400293,0.36196 2.704602,0.66428 2.898461,0.6718 0.277345,0.0107 0.336625,-1.44788 0.278101,-6.84278 z m 13.27415,5.86688 c 2.88119,-0.82622 5.50908,-2.01661 7.9788,-3.61426 l 1.98121,-1.28163 -4.82002,-4.82594 -4.82001,-4.82593 -0.84097,0.43488 c -0.46253,0.23918 -1.47309,0.64969 -2.2457,0.91222 l -1.404726,0.47734 -0.07442,6.86997 -0.07442,6.86996 1.047734,-0.18931 c 0.576252,-0.10416 2.048882,-0.47641 3.272502,-0.8273 z M 78.19943,94.311342 c -0.429119,-1.015805 -0.846834,-2.065904 -0.928249,-2.333578 -0.135757,-0.446272 -0.715292,-0.486665 -6.982682,-0.486665 h -6.834637 l 0.188393,1.042857 c 0.677874,3.752337 2.377813,8.057614 4.440646,11.246424 l 1.281626,1.9812 4.807556,-4.80167 4.807552,-4.801657 z m 42.4411,9.425208 c 2.03556,-3.14665 3.73783,-7.469607 4.41322,-11.207481 l 0.18932,-1.047742 -6.85787,0.07442 -6.85786,0.07442 -0.60747,1.668567 c -0.33412,0.917718 -0.75233,1.918858 -0.92936,2.224759 -0.28986,0.500865 0.15372,1.033377 4.45932,5.353317 2.62966,2.63842 4.81635,4.79713 4.85932,4.79713 0.043,0 0.64208,-0.87182 1.33138,-1.93737 z M 98.33356,95.002145 c 1.769,-0.865492 3.3347,-2.481587 4.17686,-4.311286 0.83552,-1.815284 0.83552,-5.483249 0,-7.298536 -0.8481,-1.842635 -2.41036,-3.44657 -4.224905,-4.337666 -1.346489,-0.661236 -1.916061,-0.773036 -3.937975,-0.773036 -2.021904,0 -2.591477,0.1118 -3.937965,0.773036 -7.02031,3.447538 -6.409599,13.750716 0.971384,16.388061 2.051933,0.733183 4.925736,0.551083 6.952601,-0.440573 z M 77.669293,81.048301 c 0.262535,-0.772598 0.673028,-1.783168 0.912209,-2.2457 l 0.434878,-0.840958 -4.825926,-4.820014 -4.825927,-4.820019 -1.281626,1.981195 c -2.063884,3.190428 -3.762594,7.49358 -4.441562,11.251311 l -0.189318,1.047742 6.869966,-0.07441 6.869965,-0.07442 z m 47.383537,0.500925 c -0.67787,-3.752337 -2.37781,-8.057612 -4.44064,-11.246421 l -1.28163,-1.981195 -4.82517,4.819252 -4.82516,4.819257 0.4998,0.995034 c 0.2749,0.547259 0.65833,1.495605 0.85206,2.107408 0.19373,0.611805 0.40577,1.206235 0.47119,1.320949 0.0654,0.114714 3.18322,0.208573 6.92845,0.208573 h 6.8095 z m -36.698572,-11.185888 1.404728,-0.477334 0.07442,-6.869965 0.07442,-6.869966 -1.047745,0.189308 c -3.757728,0.678979 -8.060873,2.377691 -11.251309,4.441571 l -1.981198,1.28163 4.82002,4.825926 4.820018,4.825927 0.840968,-0.434879 c 0.462522,-0.23918 1.47309,-0.649683 2.245687,-0.912218 z m 19.875292,-3.460845 4.83798,-4.843911 -1.98121,-1.28163 c -3.19042,-2.06388 -7.49357,-3.762592 -11.251303,-4.441571 l -1.047733,-0.189308 0.07442,6.857858 0.07442,6.857857 1.668566,0.607476 c 1.26893,0.461984 2.73511,1.130136 2.78393,1.268677 0.002,0.0042 2.18006,-2.171303 4.84095,-4.835448 z"
       id="path83"
       inkscape:connector-curvature="0"
       inkscape:export-xdpi="12.48"
       inkscape:export-ydpi="12.48" />
  </g>
</svg>
